<?xml version="1.0" ?><svg id="Capa_1" style="enable-background:new 0 0 512 512;" version="1.1" viewBox="0 0 512 512" xml:space="preserve" xmlns="http://www.w3.org/2000/svg" xmlns:xlink="http://www.w3.org/1999/xlink"><path d="M476,236v103c0,11.05-8.95,20-20,20H316v-63.83V236H476z" style="fill:#3BCD92;"/><rect height="40" style="fill:#57555C;" width="160" x="316" y="196"/><path d="M476,176v20H316v-40h140C467.05,156,476,164.95,476,176z" style="fill:#3BCD92;"/><path d="M416,276c11.05,0,20,8.95,20,20s-8.95,20-20,20s-20-8.95-20-20S404.95,276,416,276z" style="fill:#FED42D;"/><path d="M376,276c11.05,0,20,8.95,20,20s-8.95,20-20,20s-20-8.95-20-20S364.95,276,376,276z" style="fill:#FD728F;"/><path d="M316,359v103c0,22.09-17.91,40-40,40H76c-22.09,0-40-17.91-40-40V295.17h280V359z" style="fill:#C0E3F0;"/><g><path d="M276,53H76c-22.09,0-40,17.91-40,40v202.17h280V236v-40v-40V93C316,70.91,298.09,53,276,53z" style="fill:#57555C;"/><rect height="40" style="fill:#57555C;" width="40" x="236" y="419"/><rect height="40" style="fill:#57555C;" width="40" x="236" y="339"/></g><path d="M276,156v100H76V156H276z" style="fill:#3BCD92;"/><polygon points="256,53 256,116 96,116 96,53 96,10 256,10 " style="fill:#C0E3F0;"/><g><rect height="40" style="fill:#57555C;" width="40" x="156" y="419"/><rect height="40" style="fill:#57555C;" width="40" x="156" y="339"/><rect height="40" style="fill:#57555C;" width="40" x="76" y="419"/><rect height="40" style="fill:#57555C;" width="40" x="76" y="339"/></g><path d="M116,196c-5.52,0-10,4.48-10,10s4.48,10,10,10s10-4.48,10-10S121.52,196,116,196z"/><path d="M116,329H76c-5.523,0-10,4.478-10,10v40c0,5.522,4.477,10,10,10h40c5.523,0,10-4.478,10-10v-40  C126,333.478,121.523,329,116,329z M106,369H86v-20h20V369z"/><path d="M116,409H76c-5.523,0-10,4.478-10,10v40c0,5.522,4.477,10,10,10h40c5.523,0,10-4.478,10-10v-40  C126,413.478,121.523,409,116,409z M106,449H86v-20h20V449z"/><path d="M196,329h-40c-5.523,0-10,4.478-10,10v40c0,5.522,4.477,10,10,10h40c5.523,0,10-4.478,10-10v-40  C206,333.478,201.523,329,196,329z M186,369h-20v-20h20V369z"/><path d="M196,409h-40c-5.523,0-10,4.478-10,10v40c0,5.522,4.477,10,10,10h40c5.523,0,10-4.478,10-10v-40  C206,413.478,201.523,409,196,409z M186,449h-20v-20h20V449z"/><path d="M276,329h-40c-5.523,0-10,4.478-10,10v40c0,5.522,4.477,10,10,10h40c5.522,0,10-4.478,10-10v-40  C286,333.478,281.522,329,276,329z M266,369h-20v-20h20V369z"/><path d="M276,409h-40c-5.523,0-10,4.478-10,10v40c0,5.522,4.477,10,10,10h40c5.522,0,10-4.478,10-10v-40  C286,413.478,281.522,409,276,409z M266,449h-20v-20h20V449z"/><path d="M76,266h200c5.522,0,10-4.478,10-10V156c0-5.522-4.478-10-10-10H76c-5.523,0-10,4.478-10,10v100  C66,261.522,70.477,266,76,266z M86,166h180v80H86V166z"/><path d="M236,196h-80c-5.523,0-10,4.478-10,10s4.477,10,10,10h80c5.522,0,10-4.478,10-10S241.522,196,236,196z"/><path d="M136,63h80c5.523,0,10-4.478,10-10s-4.477-10-10-10h-80c-5.523,0-10,4.478-10,10S130.477,63,136,63z"/><path d="M456,146H326V93c0-27.57-22.43-50-50-50h-10V10c0-5.522-4.478-10-10-10H96c-5.523,0-10,4.478-10,10v33H76  c-27.57,0-50,22.43-50,50v369c0,27.57,22.43,50,50,50h200c27.57,0,50-22.43,50-50v-93h130c16.542,0,30-13.458,30-30V176  C486,159.458,472.542,146,456,146z M326,206h140v20H326V206z M456,166c5.514,0,10,4.486,10,10v10H326v-20H456z M106,20h140v86H106  V20z M76,63h10v43H76c-5.523,0-10,4.478-10,10s4.477,10,10,10h20h160h20c5.522,0,10-4.478,10-10s-4.478-10-10-10h-10V63h10  c16.542,0,30,13.458,30,30v192.17H46V93C46,76.458,59.458,63,76,63z M306,462c0,16.542-13.458,30-30,30H76  c-16.542,0-30-13.458-30-30V305.17h260V462z M456,349H326V246h140v93C466,344.514,461.514,349,456,349z"/><path d="M416,266c-7.678,0-14.688,2.902-20,7.664c-5.312-4.761-12.322-7.664-20-7.664c-16.542,0-30,13.458-30,30s13.458,30,30,30  c7.678,0,14.688-2.902,20-7.664c5.312,4.761,12.322,7.664,20,7.664c16.542,0,30-13.458,30-30S432.542,266,416,266z M376,306  c-5.514,0-10-4.486-10-10s4.486-10,10-10s10,4.486,10,10S381.514,306,376,306z M416,306c-5.514,0-10-4.486-10-10s4.486-10,10-10  s10,4.486,10,10S421.514,306,416,306z"/><g/><g/><g/><g/><g/><g/><g/><g/><g/><g/><g/><g/><g/><g/><g/></svg>