<svg xmlns="http://www.w3.org/2000/svg" viewBox="0 0 356.48 356.48" id="chat-icon">
    <path d="M293.98 7.23H62.5A62.57 62.57 0 0 0 0 69.73v142.78a62.57 62.57 0 0 0 62.5 62.5h147.44l70.58 70.58a12.5 12.5 0 0 0 21.34-8.84v-62.23a62.6 62.6 0 0 0 54.62-62V69.72a62.57 62.57 0 0 0-62.5-62.5zm37.5 205.28a37.54 37.54 0 0 1-37.5 37.5h-4.62c-6.9 0-12.5 5.6-12.5 12.5v44.07l-52.9-52.9a12.5 12.5 0 0 0-8.84-3.67H62.5a37.54 37.54 0 0 1-37.5-37.5V69.73a37.54 37.54 0 0 1 37.5-37.5h231.48a37.54 37.54 0 0 1 37.5 37.5v142.78z"></path>
    <path d="M270.24 95.74h-184a12.5 12.5 0 0 0 0 25h184a12.5 12.5 0 0 0 0-25zM270.24 165.74h-184a12.5 12.5 0 0 0 0 25h184a12.5 12.5 0 0 0 0-25z"></path>
</svg>
