<svg xmlns="http://www.w3.org/2000/svg" viewBox="0 0 512 512" id="withdrawal-choose">
    <path fill="none" d="M-1-1h514v514H-1z"></path>
    <path d="M149.26 414.95a42.52 42.52 0 0 1 7.22-23.72 42.77 42.77 0 0 1-28.53-40.3 42.52 42.52 0 0 1 7.23-23.71 42.77 42.77 0 0 1-28.53-40.3 42.32 42.32 0 0 1 5.75-21.32l-69.74-.04C19.13 265.56 0 246.41.02 222.88s19.15-42.66 42.68-42.65l249.41.12-29.3-58.66a64.3 64.3 0 0 1-6.73-28.61 40.81 40.81 0 0 1 40.9-40.73c10.9 0 21.11 4.26 28.8 11.96l137.88 138.01a164.02 164.02 0 0 1 48.3 116.8c-.03 76.46-62.27 138.64-138.72 138.6l-181.34-.08a42.71 42.71 0 0 1-42.64-42.7v.01zm223.99 21.43c64.7.03 117.35-52.6 117.39-117.3a142.67 142.67 0 0 0-42.09-101.67L310.68 79.39a19.31 19.31 0 0 0-13.85-5.7c-10.7 0-19.41 8.7-19.42 19.4a42.92 42.92 0 0 0 4.5 19.07l37 74.11a10.68 10.68 0 0 1-.48 10.37 10.68 10.68 0 0 1-9.07 5.05l-266.67-.13c-11.75 0-21.33 9.55-21.34 21.33s9.57 21.33 21.32 21.34l202.67.1a10.67 10.67 0 0 1-.01 21.33l-96-.04a21.34 21.34 0 0 0-.02 42.66l96 .05a10.67 10.67 0 0 1-.01 21.33l-74.67-.03c-11.75-.01-21.34 9.54-21.34 21.32s9.57 21.34 21.32 21.34l74.67.04a10.67 10.67 0 0 1-.01 21.33l-53.34-.02c-11.75-.01-21.33 9.54-21.34 21.32s9.57 21.34 21.32 21.34l181.34.09v-.01z" stroke="null"></path>
</svg>
