<svg xmlns="http://www.w3.org/2000/svg" viewBox="0 0 32 30" id="refill-card">
    <g fill="none" fill-rule="nonzero">
        <path fill="#D15241" d="M25.977.026L1.179 4.76c-.79.15-1.305.903-1.152 1.68l2.928 14.868a1.455 1.455 0 0 0 1.707 1.135l24.797-4.733a1.435 1.435 0 0 0 1.152-1.68L27.683 1.161A1.455 1.455 0 0 0 25.977.026z"></path>
        <path fill="#3A556A" d="M.679 7.978L27.972 2.7l.556 2.875-27.293 5.28z"></path>
        <path fill="#FEDA6F" d="M30.793 29.957H4.611c-.666 0-1.207-.515-1.207-1.15V13.405c0-.635.54-1.15 1.207-1.15h26.182c.667 0 1.207.515 1.207 1.15v15.402c0 .635-.54 1.15-1.207 1.15z"></path>
        <ellipse cx="27.574" cy="25.872" fill="#64798A" rx="1.702" ry="2.043"></ellipse>
        <ellipse cx="24.17" cy="25.872" fill="#E56353" rx="1.702" ry="2.043"></ellipse>
        <path fill="#E1E6E9" d="M11.09 13.617H6.612c-.267 0-.483.202-.483.451v3.183c0 .25.216.451.483.451h4.48c.267 0 .483-.202.483-.451v-3.183c0-.249-.216-.451-.483-.451z"></path>
        <path fill="#EDEDED" d="M11.574 14.816v-.402H10.52v-.797h-.43v1.28H9.066v-1.28h-.43v2.173H7.613v-2.173h-.431v.877H6.128v.402h1.054v2.806h.43v-1.51h1.024v1.51h.43v-.617h1.024v.617h.43v-1.31h1.054v-.401H10.52v-1.175h1.054zm-1.484 1.867H9.066v-1.385h1.024v1.385z"></path>
        <g fill="#D6B24E">
            <path d="M19.37 27.32c0 .2-.155.36-.343.36h-2.86a.348.348 0 0 1-.339-.36c0-.198.152-.357.34-.357h2.859a.35.35 0 0 1 .342.357zM6.362 24.483c0-.198.152-.357.34-.357h11.234c.188 0 .34.16.34.357 0 .197-.152.359-.34.359H6.701c-.187 0-.339-.162-.339-.36zM9.903 27.32c0 .2-.154.36-.342.36H6.7a.348.348 0 0 1-.339-.36c0-.198.152-.357.34-.357H9.56a.35.35 0 0 1 .342.357zM14.635 27.32c0 .2-.152.36-.34.36h-2.86a.35.35 0 0 1-.341-.36.35.35 0 0 1 .342-.357h2.86c.187 0 .339.16.339.357z"></path>
        </g>
    </g>
</svg>
