<svg xmlns="http://www.w3.org/2000/svg" viewBox="0 0 283.5 283.5" id="cases-logo">
    <path d="M141 279.4c-75.6 0-137-61.5-137-137.1s61.4-137 137-137 137.1 61.5 137.1 137.1-61.5 137-137.1 137zm0-256.2a119.2 119.2 0 1 0 119.2 119.2A119.37 119.37 0 0 0 141 23.2z"/>
    <path d="M210.32 114.68a43.36 43.36 0 1 0-81.38 20.87L77 187.41a4.25 4.25 0 0 0-.84 4.75 3 3 0 0 0 .67 1l11.63 11.63a3.32 3.32 0 0 0 1 .67 4.22 4.22 0 0 0 4.75-.84l7.19-7.19 10.34 10.34a3.32 3.32 0 0 0 1 .67 4.22 4.22 0 0 0 4.75-.84l11.46-11.46a3.32 3.32 0 0 0 .67-1 4.22 4.22 0 0 0-.84-4.75l-10.18-10.18 27.49-27.51a43.37 43.37 0 0 0 64.24-38zm-28.17 15.21a21.54 21.54 0 1 1 6.28-15.21 21.17 21.17 0 0 1-6.28 15.21z" />
</svg>
