<svg xmlns="http://www.w3.org/2000/svg" viewBox="0 0 36 27" id="leaders-race-anchor">
    <g fill="none" fill-rule="nonzero">
        <path fill="#FDBF00" d="M26 5.33l-5.535-.737L18 0l-2.465 4.593L10 5.33l4.01 3.615L13.07 14 18 11.602 22.93 14l-.94-5.054z"></path>
        <path fill="#FF9F00" d="M22.289 22.69c1.378.85 2.466 2.093 3.044 3.606L23.245 27c-.778-2.072-2.89-3.46-5.245-3.46-2.356 0-4.467 1.388-5.245 3.46l-2.088-.704c.578-1.513 1.666-2.756 3.044-3.606C8.601 20.618 5 14.9 5 8h2.222c0 3.771 1.178 7.148 3.134 9.573 1.933 2.424 4.622 3.895 7.644 3.895 6.044 0 10.778-5.905 10.778-13.468H31c0 6.9-3.6 12.618-8.711 14.69z"></path>
        <path fill="#FF7816" d="M22.289 22.69c1.378.85 2.466 2.093 3.044 3.606L23.245 27c-.778-2.072-2.89-3.46-5.245-3.46v-2.072c6.044 0 10.778-5.906 10.778-13.468H31c0 6.9-3.6 12.618-8.711 14.69z"></path>
        <path fill="#FF9F00" d="M28 23c-.738 0-2.499-.047-5-3 1.7-2.006 3.235-3 5-3 .737 0 2.498.048 5 3-1.7 2.006-3.236 3-5 3zM28 16.571c.31-3.139 1.018-5.192 2.434-6.457.593-.528 2.004-1.744 5.566-.71-.31 3.14-.992 5.193-2.409 6.458-1.693 1.512-3.722 1.26-5.591.71zM28.886 10c-.984-2.577-1.178-4.545-.432-6.31.312-.737 1.096-2.477 4.66-3.69.984 2.576 1.178 4.545.432 6.309-.312.737-1.097 2.477-4.66 3.691z"></path>
        <g fill="#FDBF00">
            <path d="M7.649 23.97c-.788 0-2.67-.047-5.342-3.05 1.815-2.04 3.456-3.05 5.342-3.05.787 0 2.669.048 5.342 3.05-1.817 2.04-3.457 3.05-5.342 3.05zM2.556 15.691C1.91 15.232.496 14.094 0 10.075c2.635-.61 4.518-.481 6.064.618.645.46 2.159 1.596 2.655 5.615-.209.02-3.604 1.205-6.163-.617zM6.93 9.882c-2.585-.813-4.18-1.898-4.977-3.635C1.621 5.52.87 3.767 2.414.034 5 .845 6.594 1.93 7.391 3.668c.333.726 1.084 2.48-.461 6.214z"></path>
        </g>
        <path fill="#FF9F00" d="M21.99 8.946L22.93 14 18 11.602V0l2.465 4.593L26 5.33z"></path>
    </g>
</svg>
