<svg xmlns="http://www.w3.org/2000/svg" viewBox="0 0 297.334 297.334" id="chevron">
    <path d="M255.5 0h-213c-4.418 0-8.333 3.582-8.333 8v223c0 2.923 1.76 5.612 4.324 7.017l106.583 58.334a8.157 8.157 0 0 0 3.884.983 8.083 8.083 0 0 0 3.864-.983l106.344-58.334c2.564-1.404 4.001-4.094 4.001-7.017V8c0-4.418-3.249-8-7.667-8zm-8.333 226.261l-98.5 53.952-98.5-53.952V16h197v210.261z"></path>
    <path d="M215.167 209.092V171.5l-66.416 35-66.584-35v37.501l66.583 36.333z"></path>
    <path d="M215.167 153.438v-37.592l-66.416 35-66.584-35v37.501l66.583 36.333zM122.753 115.683l26.746-19.42 26.748 19.46-10.215-31.393L192.778 65h-33.06l-10.219-31.443L139.282 65h-33.06l26.746 19.336z"></path>
</svg>
