<svg xmlns="http://www.w3.org/2000/svg" viewBox="0 0 546.3 258.1" id="currency-logo"><path fill="#f6e444" class="cls-1" d="M313.6,257.3H231a44,44,0,0,1-43.9-43.9V45.7A44,44,0,0,1,231,1.8h82.6a44,44,0,0,1,43.9,43.9V213.4A44,44,0,0,1,313.6,257.3ZM231,15.9a29.81,29.81,0,0,0-29.8,29.8V213.4A29.87,29.87,0,0,0,231,243.2h82.6a29.81,29.81,0,0,0,29.8-29.8V45.7a29.81,29.81,0,0,0-29.8-29.8ZM501.8,258.1H419.2a44,44,0,0,1-43.9-43.9V46.4A44,44,0,0,1,419.2,2.5h82.6a44,44,0,0,1,43.9,43.9V214.1a44,44,0,0,1-43.9,44ZM419.2,16.6a29.81,29.81,0,0,0-29.8,29.8V214.1a29.87,29.87,0,0,0,29.8,29.8h82.6a29.81,29.81,0,0,0,29.8-29.8V46.4a29.81,29.81,0,0,0-29.8-29.8H419.2ZM126.8,257.3H44.2A44,44,0,0,1,.3,213.4V45.7A44,44,0,0,1,44.2,1.8h82.6a44,44,0,0,1,43.9,43.9V213.4A44,44,0,0,1,126.8,257.3ZM44.2,15.9A29.81,29.81,0,0,0,14.4,45.7V213.4a29.87,29.87,0,0,0,29.8,29.8h82.6a29.81,29.81,0,0,0,29.8-29.8V45.7a29.81,29.81,0,0,0-29.8-29.8Z"></path><path fill="white" d="M322.83,151.57a39.61,39.61,0,0,0-3.45-8.38,28.36,28.36,0,0,0-5.81-7,69.35,69.35,0,0,0-6.8-5.48,66.25,66.25,0,0,0-8.28-4.66q-5.26-2.58-8.33-3.84t-8.88-3.45q-5.15-2-7.67-3t-6.63-3a38.65,38.65,0,0,1-6.14-3.4,48.23,48.23,0,0,1-4.33-3.62,12.34,12.34,0,0,1-3.23-4.55,14.5,14.5,0,0,1-.93-5.26q0-7.45,6.58-12.16t17-4.71a36.53,36.53,0,0,1,9.37,1.26,49,49,0,0,1,8.16,2.85,56.71,56.71,0,0,1,6.41,3.51q3,1.92,4.27,2.9c.84.66,1.37,1.1,1.59,1.32a3.49,3.49,0,0,0,3,.77A3,3,0,0,0,311.21,90l8.88-16a3.17,3.17,0,0,0-.55-4.17c-.44-.44-1-.95-1.65-1.53s-2.08-1.64-4.27-3.18a52.9,52.9,0,0,0-7-4.11,70.38,70.38,0,0,0-9.54-3.67A60.8,60.8,0,0,0,285,54.8V35.51A3.37,3.37,0,0,0,281.51,32h-14.8a3.56,3.56,0,0,0-3.51,3.51V55.24Q246,58.52,235.26,69.92a37.48,37.48,0,0,0-10.74,26.52,38.06,38.06,0,0,0,.93,8.55,43.76,43.76,0,0,0,2.3,7.29,26.82,26.82,0,0,0,3.89,6.36,68.08,68.08,0,0,0,4.77,5.37,38.71,38.71,0,0,0,5.86,4.66q3.62,2.41,6.19,3.89t6.85,3.39q4.27,1.92,6.74,2.91t6.74,2.74q5.92,2.3,8.77,3.56t7.24,3.51a30,30,0,0,1,6.41,4.11,20.6,20.6,0,0,1,3.67,4.6,11.1,11.1,0,0,1,1.65,5.81q0,8.66-6.74,13.37a26.57,26.57,0,0,1-15.62,4.71,38.29,38.29,0,0,1-8.11-.87q-14.25-2.85-26.63-13.7l-.22-.22a2.72,2.72,0,0,0-2.63-1,3.41,3.41,0,0,0-2.52,1.32L222.77,181.6a3.33,3.33,0,0,0,.22,4.49q.55.66,1.92,2a63.43,63.43,0,0,0,5.1,4.11,67.26,67.26,0,0,0,19.24,10.14,69.2,69.2,0,0,0,14,3.39v19.18a3.55,3.55,0,0,0,3.51,3.51h14.8a3.37,3.37,0,0,0,3.51-3.51V205.71q17.43-2.85,28.33-15a41.7,41.7,0,0,0,10.91-28.88A36,36,0,0,0,322.83,151.57Z"></path><path fill="white" d="M38.13,216.31A26.82,26.82,0,0,0,42,222.67,68.08,68.08,0,0,0,46.79,228c.45.45,1,.9,1.48,1.36h59.12q-4.22-2-6.85-3.12-3.07-1.26-8.88-3.45-5.15-2-7.67-3t-6.63-3a38.64,38.64,0,0,1-6.14-3.4,48.21,48.21,0,0,1-4.33-3.62,12.34,12.34,0,0,1-3.23-4.55,14.5,14.5,0,0,1-.93-5.26q0-7.45,6.58-12.16t17-4.71a36.53,36.53,0,0,1,9.37,1.26,49,49,0,0,1,8.16,2.85,56.7,56.7,0,0,1,6.41,3.51q3,1.92,4.27,2.9c.84.66,1.37,1.1,1.59,1.32a3.49,3.49,0,0,0,3,.77,3,3,0,0,0,2.52-1.75l8.88-16a3.17,3.17,0,0,0-.55-4.17c-.44-.44-1-.95-1.65-1.53s-2.08-1.64-4.27-3.18a52.91,52.91,0,0,0-7-4.11,70.38,70.38,0,0,0-9.54-3.67,60.79,60.79,0,0,0-12.11-2.52V139.54A3.37,3.37,0,0,0,91.89,136H77.09a3.56,3.56,0,0,0-3.51,3.51v19.73Q56.38,162.55,45.64,174A37.48,37.48,0,0,0,34.9,200.47a38.06,38.06,0,0,0,.93,8.55A43.76,43.76,0,0,0,38.13,216.31Z"></path><path fill="white" d="M503.34,35.72A24.42,24.42,0,0,0,500.7,32H447.55l5.21,2.12q5.92,2.3,8.77,3.56t7.24,3.51a30,30,0,0,1,6.41,4.11,20.6,20.6,0,0,1,3.67,4.6,11.1,11.1,0,0,1,1.65,5.81q0,8.66-6.74,13.37a26.57,26.57,0,0,1-15.62,4.71,38.29,38.29,0,0,1-8.11-.87q-14.25-2.85-26.63-13.7l-.22-.22a2.72,2.72,0,0,0-2.63-1A3.41,3.41,0,0,0,418,59.33L406.74,74.13a3.33,3.33,0,0,0,.22,4.49q.55.66,1.92,2a63.43,63.43,0,0,0,5.1,4.11A73.85,73.85,0,0,0,422.08,90a73.7,73.7,0,0,0,11.12,4.88,69.2,69.2,0,0,0,14,3.39v19.18a3.55,3.55,0,0,0,3.51,3.51h14.8a3.37,3.37,0,0,0,3.51-3.51V98.24q17.43-2.85,28.33-15A41.7,41.7,0,0,0,508.23,54.4a36,36,0,0,0-1.44-10.3A39.61,39.61,0,0,0,503.34,35.72Z"></path></svg>
