<svg xmlns="http://www.w3.org/2000/svg" viewBox="0 0 512 512" id="bonus-logo"><path d="M165 332c-7.99 0-15-7.477-15-16 0-6.286 3.965-11.953 9.866-14.103 7.7-2.806 16.673.999 24.606 10.445 5.33 6.344 14.79 7.167 21.134 1.839s7.167-14.79 1.839-21.133c-8.109-9.656-17.548-16.293-27.445-19.625V256c0-8.284-6.716-15-15-15s-15 6.716-15 15v17.572c-.134.047-.268.088-.401.137C131.895 280.157 120 297.153 120 316c0 11.955 4.597 23.347 12.944 32.079C141.526 357.056 152.911 362 165 362c8.271 0 15 6.729 15 15a14.99 14.99 0 0 1-9.159 13.825c-6.717 2.844-14.755.417-22.059-6.659-5.951-5.764-15.445-5.614-21.211.335-5.764 5.95-5.614 15.446.336 21.21 6.772 6.561 14.301 11.197 22.093 13.813V437c0 8.284 6.716 15 15 15s15-6.716 15-15v-17.571c18.295-6.504 30-23.575 30-42.429 0-24.813-20.187-45-45-45z"></path><path d="M463 18.844C435.379 6.692 399.155 0 361 0c-78.082 0-150 28.671-150 75v112.545A164.342 164.342 0 0 0 165 181c-43.972 0-85.406 17.376-116.67 48.928C17.164 261.381 0 302.958 0 347c0 90.981 74.019 165 165 165 30.361 0 59.55-8.159 85.059-23.438C277.958 503.529 317.713 512 361 512c38.155 0 74.379-6.692 102-18.844 31.598-13.901 49-33.845 49-56.156V75c0-22.312-17.402-42.255-49-56.156zM165 482c-74.439 0-135-60.561-135-135 0-74.991 60.561-136 135-136 74.99 0 136 61.009 136 136 0 74.439-61.01 135-136 135zm317-45c0 18.348-47.137 45-121 45-31.422 0-61.106-5.036-83.63-13.86a173.384 173.384 0 0 0 4.703-4.47c13.507-13.384 24.406-28.635 32.467-45.148C329.443 420.82 345.011 422 361 422c39.443 0 88.356-7.667 121-29.019V437zm0-90c0 18.348-47.137 45-121 45-12.237 0-24.166-.765-35.661-2.246A163.63 163.63 0 0 0 331 347c0-5.889-.321-11.733-.935-17.517 10.104 1 20.445 1.517 30.935 1.517 39.446 0 88.355-7.668 121-29.019V347zm0-91c0 18.348-47.137 45-121 45-12.768 0-25.26-.835-37.274-2.458-7.785-25.252-21.674-48.495-40.917-67.958C306 237.356 332.938 241 361 241c39.446 0 88.355-7.668 121-29.019V256zm0-90c0 18.348-47.137 45-121 45-34.007 0-65.745-5.782-89.367-16.281C252.737 186.322 241 175.317 241 166v-44.805C273.474 142.481 321.972 150 361 150c39.446 0 88.355-7.668 121-29.019V166zm-121-46c-73.276 0-120-26.255-120-45 0-18.803 46.857-45 120-45 73.863 0 121 26.652 121 45s-47.137 45-121 45z"></path></svg>
