<svg xmlns="http://www.w3.org/2000/svg" viewBox="0 0 21 25" id="notifications-icon">
    <path d="m19.875 16.336-.522-4.413c-.03-3.749-2.558-7.053-6.15-8.18v-1.101c-.001-1.457-1.213-2.642-2.703-2.642s-2.701 1.185-2.701 2.642v1.1c-3.593 1.128-6.122 4.432-6.15 8.181l-.523 4.412a2.848 2.848 0 0 0 -1.126 2.272v.173c0 2.156 2.157 2.156 2.969 2.156h2.98c.346 2.15 2.173 3.8 4.373 3.8s4.027-1.65 4.372-3.8h3.337c.812 0 2.969 0 2.969-2.156v-.173c0-.903-.418-1.728-1.125-2.271zm-9.552 6.23c-.857 0-1.602-.521-1.972-1.282h3.943c-.369.761-1.114 1.282-1.971 1.282zm7.709-3.8h-15.063c-.35 0-.6-.011-.75-.036v-.123a.73.73 0 0 1 .43-.658l.55-.26.66-5.576.008-.125c0-3.055 2.216-5.725 5.269-6.35l.882-.18v-2.816c0-.26.217-.473.484-.473.266 0 .483.212.483.473v2.816l.882.18c3.053.624 5.269 3.295 5.269 6.35l.668 5.702.55.26a.73.73 0 0 1 .43.657v.123c-.151.024-.402.037-.752.037z"></path>
</svg>
