<svg xmlns="http://www.w3.org/2000/svg" viewBox="0 0 96.261 96.261" id="referral-logo"><path d="M79.34 45.051c3.503-4.197 5.57-9.918 5.57-16.019 0-12.607-8.761-22.864-19.529-22.864-7.47 0-13.968 4.939-17.25 12.172-3.282-7.233-9.78-12.172-17.25-12.172-10.769 0-19.529 10.257-19.529 22.864 0 6.115 2.065 11.827 5.569 16.018C10.796 47.93 0 53.331 0 69.592v6h18.421c-.737 2.447-1.173 5.255-1.173 8.501v6h61.761v-6c0-3.246-.436-6.054-1.173-8.501h18.425v-6c0-16.26-10.796-21.661-16.921-24.541zM21.221 69.592H6C6 51.525 21.867 51.53 25.388 46.806l.403-2.154c-4.947-2.508-8.439-8.551-8.439-15.621 0-9.313 6.058-16.864 13.529-16.864 5.292 0 9.86 3.798 12.081 9.319C34.694 24.146 28.6 33.02 28.6 43.532c0 6.115 2.065 11.827 5.569 16.017-3.75 1.764-9.246 4.477-12.948 10.043zm27.084 14.501H23.248c0-18.066 15.867-18.062 19.388-22.786l.403-2.154c-4.947-2.508-8.439-8.551-8.439-15.621 0-9.313 6.058-16.864 13.529-16.864s13.529 7.551 13.529 16.864c0 7.008-3.43 13.015-8.311 15.561l.459 2.449c3.863 4.495 19.202 4.788 19.202 22.551H48.305zm26.731-14.501c-3.702-5.565-9.199-8.278-12.948-10.041 3.503-4.197 5.57-9.918 5.57-16.019 0-10.512-6.093-19.384-14.359-22.045 2.221-5.522 6.79-9.32 12.082-9.32 7.472 0 13.529 7.551 13.529 16.864 0 7.009-3.43 13.015-8.311 15.562l.459 2.449c3.863 4.495 19.202 4.788 19.202 22.55H75.036z"></path></svg>
