<svg xmlns="http://www.w3.org/2000/svg" viewBox="0 0 31 32" id="refill-qiwi">
    <path fill="#E9832C" fill-rule="evenodd" d="M21.42 28.057c2.727 0 5.687.935 8.962 3.837.328.29.765-.07.479-.432-3.22-4.064-6.196-4.837-9.165-5.492-3.632-.8-5.5-2.843-6.802-5.087-.259-.446-.375-.368-.398.206-.029.702.02 1.63.177 2.544-.147.007-.294.005-.442.005a9.407 9.407 0 1 1 9.407-9.407c0 .37-.018.735-.06 1.093-.687-.124-2.039-.138-2.987-.055-.357.03-.307.197-.037.245 3.11.562 5.246 2.49 5.735 5.987.01.08.116.104.158.035a14.166 14.166 0 0 0 2.014-7.305C28.461 6.37 22.091 0 14.231 0S0 6.371 0 14.23c0 7.86 6.371 14.232 14.23 14.232 2.086 0 4.154-.405 7.19-.405zm1.06-5.167c.632.535.825 1.172.49 1.62-.186.247-.488.382-.85.382-.355 0-.717-.131-.968-.35-.576-.503-.745-1.32-.369-1.783.147-.18.386-.28.671-.28.348 0 .712.146 1.026.411zm2.92-1.36c.094.624-.103.882-.301.882-.216 0-.487-.253-.807-.751-.316-.493-.43-1.058-.275-1.343.104-.19.32-.271.593-.168.528.2.735 1.008.79 1.38z"></path>
</svg>
