<svg xmlns="http://www.w3.org/2000/svg" viewBox="0 0 25 25" id="FAQ">
    <path d="M12.5 23.36c-5.988 0-10.86-4.871-10.86-10.86 0-5.989 4.872-10.86 10.86-10.86 5.988 0 10.86 4.872 10.86 10.86 0 5.989-4.872 10.86-10.86 10.86M12.5 0C5.607 0 0 5.608 0 12.5S5.607 25 12.5 25 25 19.392 25 12.5 19.393 0 12.5 0"></path>
    <path d="M12.5 5.833c-2.298 0-4.167 1.79-4.167 3.989 0 .453.384.82.857.82s.857-.367.857-.82c0-1.295 1.1-2.349 2.453-2.349 1.353 0 2.453 1.054 2.453 2.349 0 1.295-1.1 2.349-2.453 2.349-.473 0-.857.367-.857.82v2.856c0 .453.384.82.857.82s.856-.367.856-.82v-2.122c1.888-.38 3.31-1.985 3.31-3.903 0-2.2-1.868-3.989-4.166-3.989M12.5 17.5a.834.834 0 1 0 0 1.667.834.834 0 0 0 0-1.667"></path>
</svg>
