<svg xmlns="http://www.w3.org/2000/svg" viewBox="0 0 100 100" id="steam"><path d="M88.266 38.962c0 4.582-3.729 8.298-8.328 8.298-4.604 0-8.33-3.716-8.33-8.298s3.728-8.297 8.33-8.297c4.599.001 8.328 3.715 8.328 8.297m-3.356 14.02l-10.086 8.594c.109.686.183 1.383.183 2.098 0 7.316-5.954 13.248-13.296 13.248a13.286 13.286 0 0 1-12.963-10.32l-24.931-8.427a11.706 11.706 0 0 1-7.083 2.386C10.253 60.561 5 55.325 5 48.87c0-6.455 5.254-11.688 11.734-11.688a11.723 11.723 0 0 1 11.428 9.054l24.083 8.142a13.282 13.282 0 0 1 9.166-3.935l3.607-10.924c-.011-.217-.033-.431-.033-.649 0-8.255 6.721-14.948 15.008-14.948S95 30.614 95 38.87c0 6.54-4.221 12.083-10.09 14.112m-60.798-8.113a8.215 8.215 0 0 0-7.183-4.218c-4.538 0-8.218 3.665-8.218 8.185s3.68 8.184 8.218 8.184a8.21 8.21 0 0 0 2.408-.358l-3.903-1.319a6.422 6.422 0 0 1-2.645-8.713c1.686-3.131 5.602-4.31 8.745-2.631l2.578.87zm44.177-5.965c0 6.412 5.217 11.611 11.654 11.611s11.658-5.199 11.658-11.611c0-6.414-5.222-11.613-11.658-11.613-6.437.001-11.654 5.2-11.654 11.613m.229 25.907c0-4.881-3.973-8.84-8.873-8.84-.688 0-1.352.086-1.994.232l4.959 1.676a6.423 6.423 0 0 1 2.642 8.711c-1.685 3.137-5.601 4.312-8.744 2.635l-5.343-1.807a8.87 8.87 0 0 0 8.48 6.232c4.9 0 8.873-3.959 8.873-8.839"></path></svg>
