<svg xmlns="http://www.w3.org/2000/svg" viewBox="0 0 32 32" id="refill-steam">
    <g fill="#E2E2E2" fill-rule="nonzero">
        <path d="M15.6 0C7 0 0 7 0 15.6v.1l6.5 2.8c.8-.7 1.9-1.1 3-1.1.4 0 .7.1 1.1.1l2.6-4.1c-.2-.6-.3-1.1-.3-1.7 0-3.6 2.9-6.5 6.5-6.5s6.5 2.9 6.5 6.5-2.9 6.5-6.5 6.5c-.3 0-.6 0-.9-.1l-4.4 3.4c0 .2.1.4.1.6 0 2.6-2.1 4.7-4.7 4.7-2.5 0-4.6-2-4.7-4.5l-4-1.7c2.1 6.2 7.9 10.7 14.8 10.7 8.6 0 15.6-7 15.6-15.6S24.3 0 15.6 0z"></path>
        <circle cx="19.4" cy="11.7" r="3.7"></circle>
        <circle cx="9.5" cy="22.1" r="2.3"></circle>
    </g>
</svg>
