<svg xmlns="http://www.w3.org/2000/svg" viewBox="0 0 25 25" id="tech-support-icon"><path d="M20.303 3.232A10.963 10.963 0 0 0 12.5 0a10.963 10.963 0 0 0-7.803 3.232 10.953 10.953 0 0 0-3.208 7.07H0v7.325h5.438v-7.324h-2.48a9.53 9.53 0 0 1 2.28-5.494L7.29 6.86l.518-.518A6.595 6.595 0 0 1 12.5 4.395c1.77 0 3.437.691 4.693 1.947l.518.518 2.05-2.051a9.53 9.53 0 0 1 2.281 5.494h-2.48v7.324h1.935a5.182 5.182 0 0 1-5.123 4.442h-.824a2.202 2.202 0 0 0-2.073-1.466h-1.954A2.201 2.201 0 0 0 9.324 22.8c0 1.213.986 2.199 2.199 2.199h1.954c.956 0 1.77-.613 2.073-1.466h.824c3.414 0 6.233-2.59 6.599-5.907H25v-7.324h-1.49a10.953 10.953 0 0 0-3.207-7.07zm-16.33 8.536v4.394H1.465v-4.394h2.508zM17.688 4.81A8.039 8.039 0 0 0 12.5 2.93 8.04 8.04 0 0 0 7.312 4.81L6.274 3.773A9.529 9.529 0 0 1 12.5 1.465c2.375 0 4.551.87 6.226 2.308l-1.038 1.038zm-4.21 18.724h-1.955a.734.734 0 0 1 0-1.467h1.954a.734.734 0 0 1 0 1.467zm10.057-7.373h-2.508v-4.394h2.508v4.394z"></path><path d="M9.333 15.401v-1.602h2.666V9H8v1.599h2.667v1.602H8.001V17H12v-1.599zM15.667 9v3.2h-1.334V9H13v4.8h2.667V17H17V9z"></path></svg>
