<svg xmlns="http://www.w3.org/2000/svg" viewBox="0 0 513.32 513.32" id="coins-withdrawal">
    <path d="M342.21 363.6A42.9 42.9 0 0 0 385 320.82c0-23.52-19.25-42.77-42.78-42.77s-42.77 19.25-42.77 42.77a42.9 42.9 0 0 0 42.77 42.78z"></path>
    <path d="M85.55 149.72c-23.52 0-42.77-19.25-42.77-42.78s19.24-42.78 42.77-42.78h342.22v42.78h42.77V21.4H85.55C38.5 21.39 0 59.89 0 106.94V385c0 59.89 47.05 106.94 106.94 106.94h406.38V149.72H85.55zm385 299.44h-363.6c-36.37 0-64.17-27.81-64.17-64.17V179.66a77.12 77.12 0 0 0 42.77 12.84h385v256.66z"></path>
</svg>
